<?xml version="1.0" standalone="no"?>
<!DOCTYPE svg PUBLIC "-//W3C//DTD SVG 20010904//EN"
 "http://www.w3.org/TR/2001/REC-SVG-20010904/DTD/svg10.dtd">
<svg version="1.0" xmlns="http://www.w3.org/2000/svg"
 width="260.000000pt" height="260.000000pt" viewBox="0 0 260.000000 260.000000"
 preserveAspectRatio="xMidYMid meet">
<metadata>
Created by potrace 1.14, written by Peter Selinger 2001-2017
</metadata>
<g transform="translate(0.000000,260.000000) scale(0.100000,-0.100000)"
fill="#000000" stroke="none">
<path d="M167 2059 c-13 -8 -14 -107 -13 -755 2 -608 4 -747 15 -754 21 -12
425 -9 433 4 4 6 8 345 8 753 0 583 -3 744 -12 750 -17 11 -412 12 -431 2z"/>
<path d="M888 2056 c-14 -10 -15 -93 -14 -748 2 -573 5 -740 15 -751 19 -24
822 -18 935 7 248 55 429 182 534 378 27 50 48 106 69 189 3 13 7 85 9 159 2
108 -2 151 -17 215 -20 79 -84 225 -100 225 -4 0 -10 8 -13 18 -6 18 -70 87
-117 127 -102 86 -268 155 -434 181 -84 13 -849 13 -867 0z m797 -371 c53 -8
138 -47 169 -78 14 -14 27 -22 30 -19 3 3 6 -2 6 -10 0 -9 7 -21 16 -29 18
-15 53 -81 60 -113 21 -94 23 -143 10 -221 -8 -47 -50 -141 -74 -167 -47 -50
-60 -61 -102 -84 -67 -38 -147 -51 -315 -50 l-150 1 -2 392 -2 393 157 -4 c86
-3 175 -8 197 -11z"/>
</g>
</svg>
