<svg id="visual" viewBox="0 0 960 300" width="960" height="300" xmlns="http://www.w3.org/2000/svg" xmlns:xlink="http://www.w3.org/1999/xlink" version="1.1"><path d="M0 155L26.7 148C53.3 141 106.7 127 160 118C213.3 109 266.7 105 320 100.2C373.3 95.3 426.7 89.7 480 96.7C533.3 103.7 586.7 123.3 640 126.2C693.3 129 746.7 115 800 101.3C853.3 87.7 906.7 74.3 933.3 67.7L960 61L960 301L933.3 301C906.7 301 853.3 301 800 301C746.7 301 693.3 301 640 301C586.7 301 533.3 301 480 301C426.7 301 373.3 301 320 301C266.7 301 213.3 301 160 301C106.7 301 53.3 301 26.7 301L0 301Z" fill="#121212"></path><path d="M0 100L26.7 114C53.3 128 106.7 156 160 163.8C213.3 171.7 266.7 159.3 320 158.3C373.3 157.3 426.7 167.7 480 171C533.3 174.3 586.7 170.7 640 167.7C693.3 164.7 746.7 162.3 800 166.8C853.3 171.3 906.7 182.7 933.3 188.3L960 194L960 301L933.3 301C906.7 301 853.3 301 800 301C746.7 301 693.3 301 640 301C586.7 301 533.3 301 480 301C426.7 301 373.3 301 320 301C266.7 301 213.3 301 160 301C106.7 301 53.3 301 26.7 301L0 301Z" fill="#11132a"></path><path d="M0 137L26.7 148.8C53.3 160.7 106.7 184.3 160 184.2C213.3 184 266.7 160 320 156.3C373.3 152.7 426.7 169.3 480 180.7C533.3 192 586.7 198 640 202C693.3 206 746.7 208 800 205.8C853.3 203.7 906.7 197.3 933.3 194.2L960 191L960 301L933.3 301C906.7 301 853.3 301 800 301C746.7 301 693.3 301 640 301C586.7 301 533.3 301 480 301C426.7 301 373.3 301 320 301C266.7 301 213.3 301 160 301C106.7 301 53.3 301 26.7 301L0 301Z" fill="#001442"></path><path d="M0 165L26.7 172.2C53.3 179.3 106.7 193.7 160 195.8C213.3 198 266.7 188 320 191.2C373.3 194.3 426.7 210.7 480 214.7C533.3 218.7 586.7 210.3 640 211C693.3 211.7 746.7 221.3 800 216.7C853.3 212 906.7 193 933.3 183.5L960 174L960 301L933.3 301C906.7 301 853.3 301 800 301C746.7 301 693.3 301 640 301C586.7 301 533.3 301 480 301C426.7 301 373.3 301 320 301C266.7 301 213.3 301 160 301C106.7 301 53.3 301 26.7 301L0 301Z" fill="#001442"></path><path d="M0 215L26.7 217.2C53.3 219.3 106.7 223.7 160 226.8C213.3 230 266.7 232 320 230.7C373.3 229.3 426.7 224.7 480 221.3C533.3 218 586.7 216 640 219.5C693.3 223 746.7 232 800 233.3C853.3 234.7 906.7 228.3 933.3 225.2L960 222L960 301L933.3 301C906.7 301 853.3 301 800 301C746.7 301 693.3 301 640 301C586.7 301 533.3 301 480 301C426.7 301 373.3 301 320 301C266.7 301 213.3 301 160 301C106.7 301 53.3 301 26.7 301L0 301Z" fill="#11132a"></path><path d="M0 235L26.7 235.3C53.3 235.7 106.7 236.3 160 240C213.3 243.7 266.7 250.3 320 255C373.3 259.7 426.7 262.3 480 263.3C533.3 264.3 586.7 263.7 640 259.2C693.3 254.7 746.7 246.3 800 244.8C853.3 243.3 906.7 248.7 933.3 251.3L960 254L960 301L933.3 301C906.7 301 853.3 301 800 301C746.7 301 693.3 301 640 301C586.7 301 533.3 301 480 301C426.7 301 373.3 301 320 301C266.7 301 213.3 301 160 301C106.7 301 53.3 301 26.7 301L0 301Z" fill="#121212"></path></svg>